<svg id="camera-24px" xmlns="http://www.w3.org/2000/svg" width="24" height="24" viewBox="0 0 24 24">
  <path id="路径_8" data-name="路径 8" d="M0,0H24V24H0Z" fill="none"/>
  <path id="路径_9" data-name="路径 9" d="M14.25,2.26l-.08-.04-.01.02A10.285,10.285,0,0,0,12,2a10.018,10.018,0,1,0,2.25.26ZM19.41,9H11.42l2.71-4.7A8.025,8.025,0,0,1,19.41,9ZM13.1,4.08,10.27,9,9.12,11,6.4,6.3a7.913,7.913,0,0,1,6.7-2.22ZM5.7,7.09,8.54,12l1.15,2H4.26A8.242,8.242,0,0,1,4,12,7.961,7.961,0,0,1,5.7,7.09ZM4.59,15h7.98L9.86,19.7A8.033,8.033,0,0,1,4.59,15Zm6.31,4.91L14.89,13l2.72,4.7A8,8,0,0,1,12,20,7.9,7.9,0,0,1,10.9,19.91Zm7.4-3L14.3,10h5.43A7.783,7.783,0,0,1,20,12,7.961,7.961,0,0,1,18.3,16.91Z"/>
</svg>
