<svg id="logo" xmlns="http://www.w3.org/2000/svg" width="169.724" height="32" viewBox="0 0 169.724 32">
  <g id="circle" fill="none" stroke="#000" stroke-width="2.5">
    <circle cx="16" cy="16" r="16" stroke="none"/>
    <circle cx="16" cy="16" r="14.75" fill="none"/>
  </g>
  <path id="wave" d="M3628.106,1406.639l6.485,7.821,7.951-6.937,7.952,6.937,6.466-7.833" transform="translate(-3626.64 -1395.194)" fill="none" stroke="#000" stroke-width="2.5"/>
  <path id="text" d="M2.031-16.174h3.5a6.657,6.657,0,0,1,4.259,1.3,4.066,4.066,0,0,1,1.644,3.333,4.279,4.279,0,0,1-1.066,2.869A5.953,5.953,0,0,1,7.046-6.919L11.756,0H9.229L4.735-6.652h-.5V0H2.031ZM4.24-14.219v5.637q4.888.1,4.888-2.831A2.463,2.463,0,0,0,8.557-13.1a2.875,2.875,0,0,0-1.523-.889A12.469,12.469,0,0,0,4.24-14.219ZM28.935-16.8,36.577,0H34.267L32.375-4.139H25.507L23.666,0h-2.3Zm0,5.065-2.6,5.751h5.205ZM43.4-16.148h2.336L50.8-4.71l5.1-11.438h2.361L50.773.546Zm25.088-.025h8.963v2.209H70.669v4.037h6.779v2.184H70.669v5.561h6.779V0H68.485Zm19.654-.647L100.1-4.52V-16.174h2.209V.749L90.348-11.489V0H88.139Zm24.695.647h9.89v2.209h-3.859V0h-2.184V-13.965h-3.847Z" transform="translate(47 23)"/>
</svg>
